<svg xmlns="http://www.w3.org/2000/svg" width="40" height="40" viewBox="0 0 40 40">
    <!-- 2px+ padding around the perimeter by keeping artwork inside x:[4..36], y:[6..34] -->
    <!-- Folder -->
    <path fill="#389FD6" d="M8 15c0-1.105.895-2 2-2h8.4c.52 0 1.01.27 1.3.72L21.4 16H30c1.105 0 2 .895 2 2v12c0 1.105-.895 2-2 2H10c-1.105 0-2-.895-2-2V15z"/>
    <!-- Folder tab highlight (subtle, still flat) -->
    <path fill="#59A869" d="M10 14h8.0l1.4 2H10c-.55 0-1-.45-1-1s.45-1 1-1z"/>

    <!-- "M" mark (no font dependency) -->
    <path fill="#FFFFFF" d="M13 30V19h3.1l3.9 6.1 3.9-6.1H31v11h-3v-6.6l-4.2 6.6h-2.1l-4.2-6.6V30h-2.5z"/>
</svg>